<mxfile host="app.diagrams.net" agent="Mozilla/5.0 (Windows NT 10.0; Win64; x64) AppleWebKit/537.36 (KHTML, like Gecko) Chrome/131.0.0.0 Safari/537.36" version="26.0.4">
  <diagram name="Page-1" id="lmrGIUPa0YLDVM3o05oO">
    <mxGraphModel dx="4144" dy="1678" grid="1" gridSize="10" guides="1" tooltips="1" connect="1" arrows="1" fold="1" page="1" pageScale="1" pageWidth="850" pageHeight="1100" math="0" shadow="0">
      <root>
        <mxCell id="0" />
        <mxCell id="1" parent="0" />
        <mxCell id="8xBzDFD03f1PaA1T0tNl-122" value="" style="rounded=0;whiteSpace=wrap;html=1;align=left;" vertex="1" parent="1">
          <mxGeometry x="1090" y="250" width="470" height="770" as="geometry" />
        </mxCell>
        <mxCell id="8xBzDFD03f1PaA1T0tNl-116" value="" style="verticalLabelPosition=bottom;verticalAlign=top;html=1;shape=mxgraph.basic.rect;fillColor2=none;strokeWidth=3;size=20;indent=5;strokeColor=light-dark(#c6c3c3, #ededed);" vertex="1" parent="1">
          <mxGeometry x="-80" y="1370" width="640" height="470" as="geometry" />
        </mxCell>
        <mxCell id="8xBzDFD03f1PaA1T0tNl-115" value="" style="verticalLabelPosition=bottom;verticalAlign=top;html=1;shape=mxgraph.basic.rect;fillColor2=none;strokeWidth=3;size=20;indent=5;strokeColor=light-dark(#c6c3c3, #ededed);" vertex="1" parent="1">
          <mxGeometry x="-80" y="630" width="1130" height="720" as="geometry" />
        </mxCell>
        <mxCell id="8xBzDFD03f1PaA1T0tNl-114" value="" style="verticalLabelPosition=bottom;verticalAlign=top;html=1;shape=mxgraph.basic.rect;fillColor2=none;strokeWidth=3;size=20;indent=5;strokeColor=light-dark(#c6c3c3, #ededed);" vertex="1" parent="1">
          <mxGeometry x="730" y="250" width="320" height="360" as="geometry" />
        </mxCell>
        <mxCell id="8xBzDFD03f1PaA1T0tNl-113" value="" style="verticalLabelPosition=bottom;verticalAlign=top;html=1;shape=mxgraph.basic.rect;fillColor2=none;strokeWidth=3;size=20;indent=5;strokeColor=light-dark(#c6c3c3, #ededed);" vertex="1" parent="1">
          <mxGeometry x="-80" y="250" width="790" height="360" as="geometry" />
        </mxCell>
        <mxCell id="8xBzDFD03f1PaA1T0tNl-7" value="Image Upload Interface" style="shape=umlBoundary;whiteSpace=wrap;html=1;" vertex="1" parent="1">
          <mxGeometry x="-60" y="960" width="100" height="80" as="geometry" />
        </mxCell>
        <mxCell id="8xBzDFD03f1PaA1T0tNl-81" style="edgeStyle=orthogonalEdgeStyle;rounded=0;orthogonalLoop=1;jettySize=auto;html=1;" edge="1" parent="1" source="8xBzDFD03f1PaA1T0tNl-9" target="8xBzDFD03f1PaA1T0tNl-15">
          <mxGeometry relative="1" as="geometry" />
        </mxCell>
        <mxCell id="8xBzDFD03f1PaA1T0tNl-9" value="Labelling Projects collection coordinator" style="ellipse;shape=umlControl;whiteSpace=wrap;html=1;" vertex="1" parent="1">
          <mxGeometry x="270" y="755" width="80" height="90" as="geometry" />
        </mxCell>
        <mxCell id="8xBzDFD03f1PaA1T0tNl-19" style="edgeStyle=orthogonalEdgeStyle;rounded=0;orthogonalLoop=1;jettySize=auto;html=1;" edge="1" parent="1" source="8xBzDFD03f1PaA1T0tNl-11" target="8xBzDFD03f1PaA1T0tNl-10">
          <mxGeometry relative="1" as="geometry">
            <Array as="points">
              <mxPoint x="190" y="300" />
              <mxPoint x="190" y="530" />
            </Array>
          </mxGeometry>
        </mxCell>
        <mxCell id="8xBzDFD03f1PaA1T0tNl-10" value="Labeling Interface" style="shape=umlBoundary;whiteSpace=wrap;html=1;" vertex="1" parent="1">
          <mxGeometry x="-60" y="500" width="100" height="80" as="geometry" />
        </mxCell>
        <mxCell id="8xBzDFD03f1PaA1T0tNl-29" style="edgeStyle=orthogonalEdgeStyle;rounded=0;orthogonalLoop=1;jettySize=auto;html=1;" edge="1" parent="1" source="8xBzDFD03f1PaA1T0tNl-24" target="8xBzDFD03f1PaA1T0tNl-11">
          <mxGeometry relative="1" as="geometry">
            <Array as="points">
              <mxPoint x="470" y="290" />
              <mxPoint x="470" y="290" />
            </Array>
          </mxGeometry>
        </mxCell>
        <mxCell id="8xBzDFD03f1PaA1T0tNl-11" value="Image Service" style="ellipse;shape=umlControl;whiteSpace=wrap;html=1;" vertex="1" parent="1">
          <mxGeometry x="270" y="255" width="80" height="90" as="geometry" />
        </mxCell>
        <mxCell id="8xBzDFD03f1PaA1T0tNl-16" style="edgeStyle=orthogonalEdgeStyle;rounded=0;orthogonalLoop=1;jettySize=auto;html=1;entryX=0;entryY=0.5;entryDx=0;entryDy=0;" edge="1" parent="1" source="8xBzDFD03f1PaA1T0tNl-12" target="8xBzDFD03f1PaA1T0tNl-14">
          <mxGeometry relative="1" as="geometry" />
        </mxCell>
        <mxCell id="8xBzDFD03f1PaA1T0tNl-23" style="edgeStyle=orthogonalEdgeStyle;rounded=0;orthogonalLoop=1;jettySize=auto;html=1;" edge="1" parent="1" source="8xBzDFD03f1PaA1T0tNl-10" target="8xBzDFD03f1PaA1T0tNl-12">
          <mxGeometry relative="1" as="geometry">
            <Array as="points">
              <mxPoint x="100" y="555" />
              <mxPoint x="100" y="555" />
            </Array>
          </mxGeometry>
        </mxCell>
        <mxCell id="8xBzDFD03f1PaA1T0tNl-12" value="Label Processing Engine" style="ellipse;shape=umlControl;whiteSpace=wrap;html=1;" vertex="1" parent="1">
          <mxGeometry x="360" y="510" width="80" height="90" as="geometry" />
        </mxCell>
        <mxCell id="8xBzDFD03f1PaA1T0tNl-131" style="edgeStyle=orthogonalEdgeStyle;rounded=0;orthogonalLoop=1;jettySize=auto;html=1;" edge="1" parent="1" source="8xBzDFD03f1PaA1T0tNl-13" target="8xBzDFD03f1PaA1T0tNl-125">
          <mxGeometry relative="1" as="geometry">
            <Array as="points">
              <mxPoint x="620" y="360" />
            </Array>
          </mxGeometry>
        </mxCell>
        <mxCell id="8xBzDFD03f1PaA1T0tNl-13" value="Object Extraction Engine" style="ellipse;shape=umlControl;whiteSpace=wrap;html=1;" vertex="1" parent="1">
          <mxGeometry x="590" y="380" width="80" height="90" as="geometry" />
        </mxCell>
        <mxCell id="8xBzDFD03f1PaA1T0tNl-31" style="edgeStyle=orthogonalEdgeStyle;rounded=0;orthogonalLoop=1;jettySize=auto;html=1;" edge="1" parent="1" source="8xBzDFD03f1PaA1T0tNl-14" target="8xBzDFD03f1PaA1T0tNl-13">
          <mxGeometry relative="1" as="geometry">
            <Array as="points">
              <mxPoint x="630" y="560" />
            </Array>
          </mxGeometry>
        </mxCell>
        <mxCell id="8xBzDFD03f1PaA1T0tNl-71" style="edgeStyle=orthogonalEdgeStyle;rounded=0;orthogonalLoop=1;jettySize=auto;html=1;" edge="1" parent="1" source="8xBzDFD03f1PaA1T0tNl-14" target="8xBzDFD03f1PaA1T0tNl-69">
          <mxGeometry relative="1" as="geometry">
            <Array as="points">
              <mxPoint x="630" y="830" />
              <mxPoint x="630" y="830" />
            </Array>
          </mxGeometry>
        </mxCell>
        <mxCell id="8xBzDFD03f1PaA1T0tNl-14" value="Label Database" style="ellipse;shape=umlEntity;whiteSpace=wrap;html=1;" vertex="1" parent="1">
          <mxGeometry x="590" y="515" width="80" height="80" as="geometry" />
        </mxCell>
        <mxCell id="8xBzDFD03f1PaA1T0tNl-61" style="edgeStyle=orthogonalEdgeStyle;rounded=0;orthogonalLoop=1;jettySize=auto;html=1;" edge="1" parent="1" source="8xBzDFD03f1PaA1T0tNl-15" target="8xBzDFD03f1PaA1T0tNl-34">
          <mxGeometry relative="1" as="geometry">
            <Array as="points">
              <mxPoint x="610" y="670" />
              <mxPoint x="610" y="670" />
            </Array>
          </mxGeometry>
        </mxCell>
        <mxCell id="8xBzDFD03f1PaA1T0tNl-70" style="edgeStyle=orthogonalEdgeStyle;rounded=0;orthogonalLoop=1;jettySize=auto;html=1;" edge="1" parent="1" source="8xBzDFD03f1PaA1T0tNl-15" target="8xBzDFD03f1PaA1T0tNl-69">
          <mxGeometry relative="1" as="geometry">
            <Array as="points">
              <mxPoint x="610" y="680" />
            </Array>
          </mxGeometry>
        </mxCell>
        <mxCell id="8xBzDFD03f1PaA1T0tNl-107" style="edgeStyle=orthogonalEdgeStyle;rounded=0;orthogonalLoop=1;jettySize=auto;html=1;" edge="1" parent="1" source="8xBzDFD03f1PaA1T0tNl-15" target="8xBzDFD03f1PaA1T0tNl-17">
          <mxGeometry relative="1" as="geometry">
            <Array as="points">
              <mxPoint x="330" y="430" />
            </Array>
          </mxGeometry>
        </mxCell>
        <mxCell id="8xBzDFD03f1PaA1T0tNl-108" style="edgeStyle=orthogonalEdgeStyle;rounded=0;orthogonalLoop=1;jettySize=auto;html=1;" edge="1" parent="1" source="8xBzDFD03f1PaA1T0tNl-15" target="8xBzDFD03f1PaA1T0tNl-11">
          <mxGeometry relative="1" as="geometry">
            <Array as="points">
              <mxPoint x="300" y="330" />
              <mxPoint x="300" y="330" />
            </Array>
          </mxGeometry>
        </mxCell>
        <mxCell id="8xBzDFD03f1PaA1T0tNl-15" value="Labeling Project Database" style="ellipse;shape=umlEntity;whiteSpace=wrap;html=1;" vertex="1" parent="1">
          <mxGeometry x="270" y="640" width="80" height="80" as="geometry" />
        </mxCell>
        <mxCell id="8xBzDFD03f1PaA1T0tNl-38" style="edgeStyle=orthogonalEdgeStyle;rounded=0;orthogonalLoop=1;jettySize=auto;html=1;" edge="1" parent="1" source="8xBzDFD03f1PaA1T0tNl-17" target="8xBzDFD03f1PaA1T0tNl-13">
          <mxGeometry relative="1" as="geometry" />
        </mxCell>
        <mxCell id="8xBzDFD03f1PaA1T0tNl-112" style="edgeStyle=orthogonalEdgeStyle;rounded=0;orthogonalLoop=1;jettySize=auto;html=1;" edge="1" parent="1" source="8xBzDFD03f1PaA1T0tNl-24" target="8xBzDFD03f1PaA1T0tNl-17">
          <mxGeometry relative="1" as="geometry">
            <Array as="points">
              <mxPoint x="490" y="300" />
            </Array>
          </mxGeometry>
        </mxCell>
        <mxCell id="8xBzDFD03f1PaA1T0tNl-17" value="Image Pre-processing&lt;div&gt;Service&amp;nbsp;&lt;/div&gt;" style="ellipse;shape=umlControl;whiteSpace=wrap;html=1;" vertex="1" parent="1">
          <mxGeometry x="450" y="380" width="80" height="90" as="geometry" />
        </mxCell>
        <mxCell id="8xBzDFD03f1PaA1T0tNl-55" style="edgeStyle=orthogonalEdgeStyle;rounded=0;orthogonalLoop=1;jettySize=auto;html=1;" edge="1" parent="1" source="8xBzDFD03f1PaA1T0tNl-32" target="8xBzDFD03f1PaA1T0tNl-52">
          <mxGeometry relative="1" as="geometry" />
        </mxCell>
        <mxCell id="8xBzDFD03f1PaA1T0tNl-32" value="Client&amp;nbsp;&lt;div&gt;Account Creation Interface&lt;/div&gt;" style="shape=umlBoundary;whiteSpace=wrap;html=1;" vertex="1" parent="1">
          <mxGeometry x="-60" y="1415" width="100" height="80" as="geometry" />
        </mxCell>
        <mxCell id="8xBzDFD03f1PaA1T0tNl-42" style="edgeStyle=orthogonalEdgeStyle;rounded=0;orthogonalLoop=1;jettySize=auto;html=1;" edge="1" parent="1" source="8xBzDFD03f1PaA1T0tNl-34" target="8xBzDFD03f1PaA1T0tNl-40">
          <mxGeometry relative="1" as="geometry" />
        </mxCell>
        <mxCell id="8xBzDFD03f1PaA1T0tNl-50" style="edgeStyle=orthogonalEdgeStyle;rounded=0;orthogonalLoop=1;jettySize=auto;html=1;startArrow=classic;startFill=1;" edge="1" parent="1" source="8xBzDFD03f1PaA1T0tNl-34" target="8xBzDFD03f1PaA1T0tNl-49">
          <mxGeometry relative="1" as="geometry" />
        </mxCell>
        <mxCell id="8xBzDFD03f1PaA1T0tNl-34" value="&lt;div&gt;Model Manager&amp;nbsp;&lt;/div&gt;" style="ellipse;shape=umlControl;whiteSpace=wrap;html=1;" vertex="1" parent="1">
          <mxGeometry x="822.5" y="505" width="80" height="90" as="geometry" />
        </mxCell>
        <mxCell id="8xBzDFD03f1PaA1T0tNl-41" style="edgeStyle=orthogonalEdgeStyle;rounded=0;orthogonalLoop=1;jettySize=auto;html=1;" edge="1" parent="1" source="8xBzDFD03f1PaA1T0tNl-24" target="8xBzDFD03f1PaA1T0tNl-34">
          <mxGeometry relative="1" as="geometry">
            <Array as="points">
              <mxPoint x="690" y="300" />
              <mxPoint x="690" y="550" />
            </Array>
          </mxGeometry>
        </mxCell>
        <mxCell id="8xBzDFD03f1PaA1T0tNl-111" style="edgeStyle=orthogonalEdgeStyle;rounded=0;orthogonalLoop=1;jettySize=auto;html=1;startArrow=classic;startFill=1;" edge="1" parent="1" source="8xBzDFD03f1PaA1T0tNl-24" target="8xBzDFD03f1PaA1T0tNl-13">
          <mxGeometry relative="1" as="geometry">
            <Array as="points">
              <mxPoint x="640" y="360" />
              <mxPoint x="640" y="360" />
            </Array>
          </mxGeometry>
        </mxCell>
        <mxCell id="8xBzDFD03f1PaA1T0tNl-24" value="Object Database" style="ellipse;shape=umlEntity;whiteSpace=wrap;html=1;" vertex="1" parent="1">
          <mxGeometry x="590" y="260" width="80" height="80" as="geometry" />
        </mxCell>
        <mxCell id="8xBzDFD03f1PaA1T0tNl-44" style="edgeStyle=orthogonalEdgeStyle;rounded=0;orthogonalLoop=1;jettySize=auto;html=1;startArrow=classic;startFill=1;" edge="1" parent="1" source="8xBzDFD03f1PaA1T0tNl-39" target="8xBzDFD03f1PaA1T0tNl-34">
          <mxGeometry relative="1" as="geometry" />
        </mxCell>
        <mxCell id="8xBzDFD03f1PaA1T0tNl-39" value="ML Model Database" style="ellipse;shape=umlEntity;whiteSpace=wrap;html=1;" vertex="1" parent="1">
          <mxGeometry x="952.5" y="510" width="80" height="80" as="geometry" />
        </mxCell>
        <mxCell id="8xBzDFD03f1PaA1T0tNl-40" value="&lt;div&gt;Model Training Service&lt;/div&gt;" style="ellipse;shape=umlControl;whiteSpace=wrap;html=1;" vertex="1" parent="1">
          <mxGeometry x="897.5" y="375" width="80" height="90" as="geometry" />
        </mxCell>
        <mxCell id="8xBzDFD03f1PaA1T0tNl-49" value="&lt;div&gt;Model Evaluation Service&lt;/div&gt;" style="ellipse;shape=umlControl;whiteSpace=wrap;html=1;" vertex="1" parent="1">
          <mxGeometry x="747.5" y="375" width="80" height="90" as="geometry" />
        </mxCell>
        <mxCell id="8xBzDFD03f1PaA1T0tNl-56" style="edgeStyle=orthogonalEdgeStyle;rounded=0;orthogonalLoop=1;jettySize=auto;html=1;startArrow=classic;startFill=1;" edge="1" parent="1" source="8xBzDFD03f1PaA1T0tNl-53" target="8xBzDFD03f1PaA1T0tNl-52">
          <mxGeometry relative="1" as="geometry" />
        </mxCell>
        <mxCell id="8xBzDFD03f1PaA1T0tNl-52" value="Account Manager" style="ellipse;shape=umlControl;whiteSpace=wrap;html=1;" vertex="1" parent="1">
          <mxGeometry x="120" y="1410" width="80" height="90" as="geometry" />
        </mxCell>
        <mxCell id="8xBzDFD03f1PaA1T0tNl-53" value="Account Information Database" style="ellipse;shape=umlEntity;whiteSpace=wrap;html=1;" vertex="1" parent="1">
          <mxGeometry x="270" y="1415" width="80" height="80" as="geometry" />
        </mxCell>
        <mxCell id="8xBzDFD03f1PaA1T0tNl-59" style="edgeStyle=orthogonalEdgeStyle;rounded=0;orthogonalLoop=1;jettySize=auto;html=1;" edge="1" parent="1" source="8xBzDFD03f1PaA1T0tNl-57" target="8xBzDFD03f1PaA1T0tNl-52">
          <mxGeometry relative="1" as="geometry">
            <Array as="points">
              <mxPoint x="80" y="1555" />
              <mxPoint x="80" y="1455" />
            </Array>
          </mxGeometry>
        </mxCell>
        <mxCell id="8xBzDFD03f1PaA1T0tNl-57" value="Labeller&lt;br&gt;&lt;div&gt;Account Creation Interface&lt;/div&gt;" style="shape=umlBoundary;whiteSpace=wrap;html=1;" vertex="1" parent="1">
          <mxGeometry x="-60" y="1515" width="100" height="80" as="geometry" />
        </mxCell>
        <mxCell id="8xBzDFD03f1PaA1T0tNl-64" style="edgeStyle=orthogonalEdgeStyle;rounded=0;orthogonalLoop=1;jettySize=auto;html=1;" edge="1" parent="1" source="8xBzDFD03f1PaA1T0tNl-52" target="8xBzDFD03f1PaA1T0tNl-63">
          <mxGeometry relative="1" as="geometry">
            <Array as="points">
              <mxPoint x="160" y="1190" />
            </Array>
          </mxGeometry>
        </mxCell>
        <mxCell id="8xBzDFD03f1PaA1T0tNl-98" style="edgeStyle=orthogonalEdgeStyle;rounded=0;orthogonalLoop=1;jettySize=auto;html=1;" edge="1" parent="1" source="8xBzDFD03f1PaA1T0tNl-63" target="8xBzDFD03f1PaA1T0tNl-65">
          <mxGeometry relative="1" as="geometry">
            <mxPoint x="310" y="1140" as="targetPoint" />
            <Array as="points">
              <mxPoint x="310" y="1170" />
            </Array>
          </mxGeometry>
        </mxCell>
        <mxCell id="8xBzDFD03f1PaA1T0tNl-63" value="Labelling Project Creation Interface" style="shape=umlBoundary;whiteSpace=wrap;html=1;" vertex="1" parent="1">
          <mxGeometry x="-60" y="1140" width="100" height="80" as="geometry" />
        </mxCell>
        <mxCell id="8xBzDFD03f1PaA1T0tNl-100" style="edgeStyle=orthogonalEdgeStyle;rounded=0;orthogonalLoop=1;jettySize=auto;html=1;" edge="1" parent="1" source="8xBzDFD03f1PaA1T0tNl-65" target="8xBzDFD03f1PaA1T0tNl-93">
          <mxGeometry relative="1" as="geometry" />
        </mxCell>
        <mxCell id="8xBzDFD03f1PaA1T0tNl-103" style="edgeStyle=orthogonalEdgeStyle;rounded=0;orthogonalLoop=1;jettySize=auto;html=1;" edge="1" parent="1" source="8xBzDFD03f1PaA1T0tNl-65" target="8xBzDFD03f1PaA1T0tNl-9">
          <mxGeometry relative="1" as="geometry">
            <mxPoint x="330" y="800" as="targetPoint" />
            <Array as="points">
              <mxPoint x="330" y="940" />
              <mxPoint x="330" y="940" />
            </Array>
          </mxGeometry>
        </mxCell>
        <mxCell id="8xBzDFD03f1PaA1T0tNl-65" value="Labelling Project Manager" style="ellipse;shape=umlControl;whiteSpace=wrap;html=1;" vertex="1" parent="1">
          <mxGeometry x="270" y="1045" width="80" height="90" as="geometry" />
        </mxCell>
        <mxCell id="8xBzDFD03f1PaA1T0tNl-105" style="edgeStyle=orthogonalEdgeStyle;rounded=0;orthogonalLoop=1;jettySize=auto;html=1;" edge="1" parent="1" source="8xBzDFD03f1PaA1T0tNl-69" target="8xBzDFD03f1PaA1T0tNl-65">
          <mxGeometry relative="1" as="geometry" />
        </mxCell>
        <mxCell id="8xBzDFD03f1PaA1T0tNl-69" value="Summary Report Engine" style="ellipse;shape=umlControl;whiteSpace=wrap;html=1;" vertex="1" parent="1">
          <mxGeometry x="580" y="1045" width="80" height="90" as="geometry" />
        </mxCell>
        <mxCell id="8xBzDFD03f1PaA1T0tNl-72" style="edgeStyle=orthogonalEdgeStyle;rounded=0;orthogonalLoop=1;jettySize=auto;html=1;entryX=1;entryY=0.556;entryDx=0;entryDy=0;entryPerimeter=0;" edge="1" parent="1" source="8xBzDFD03f1PaA1T0tNl-39" target="8xBzDFD03f1PaA1T0tNl-69">
          <mxGeometry relative="1" as="geometry">
            <Array as="points">
              <mxPoint x="992" y="1095" />
            </Array>
          </mxGeometry>
        </mxCell>
        <mxCell id="8xBzDFD03f1PaA1T0tNl-74" value="Summary Report Interface" style="shape=umlBoundary;whiteSpace=wrap;html=1;" vertex="1" parent="1">
          <mxGeometry x="-60" y="860" width="100" height="80" as="geometry" />
        </mxCell>
        <mxCell id="8xBzDFD03f1PaA1T0tNl-77" style="edgeStyle=orthogonalEdgeStyle;rounded=0;orthogonalLoop=1;jettySize=auto;html=1;startArrow=classic;startFill=1;" edge="1" parent="1" source="8xBzDFD03f1PaA1T0tNl-76" target="8xBzDFD03f1PaA1T0tNl-52">
          <mxGeometry relative="1" as="geometry" />
        </mxCell>
        <mxCell id="8xBzDFD03f1PaA1T0tNl-76" value="Account Modification Interface" style="shape=umlBoundary;whiteSpace=wrap;html=1;" vertex="1" parent="1">
          <mxGeometry x="-60" y="1620" width="100" height="80" as="geometry" />
        </mxCell>
        <mxCell id="8xBzDFD03f1PaA1T0tNl-79" style="edgeStyle=orthogonalEdgeStyle;rounded=0;orthogonalLoop=1;jettySize=auto;html=1;" edge="1" parent="1" source="8xBzDFD03f1PaA1T0tNl-9" target="8xBzDFD03f1PaA1T0tNl-78">
          <mxGeometry relative="1" as="geometry" />
        </mxCell>
        <mxCell id="8xBzDFD03f1PaA1T0tNl-78" value="Project Selection Interface" style="shape=umlBoundary;whiteSpace=wrap;html=1;" vertex="1" parent="1">
          <mxGeometry x="-60" y="760" width="100" height="80" as="geometry" />
        </mxCell>
        <mxCell id="8xBzDFD03f1PaA1T0tNl-86" style="edgeStyle=orthogonalEdgeStyle;rounded=0;orthogonalLoop=1;jettySize=auto;html=1;startArrow=classic;startFill=1;" edge="1" parent="1" source="8xBzDFD03f1PaA1T0tNl-83" target="8xBzDFD03f1PaA1T0tNl-84">
          <mxGeometry relative="1" as="geometry" />
        </mxCell>
        <mxCell id="8xBzDFD03f1PaA1T0tNl-83" value="Login Interface" style="shape=umlBoundary;whiteSpace=wrap;html=1;" vertex="1" parent="1">
          <mxGeometry x="-60" y="1730" width="100" height="80" as="geometry" />
        </mxCell>
        <mxCell id="8xBzDFD03f1PaA1T0tNl-85" style="edgeStyle=orthogonalEdgeStyle;rounded=0;orthogonalLoop=1;jettySize=auto;html=1;" edge="1" parent="1" source="8xBzDFD03f1PaA1T0tNl-53" target="8xBzDFD03f1PaA1T0tNl-84">
          <mxGeometry relative="1" as="geometry">
            <Array as="points">
              <mxPoint x="310" y="1770" />
            </Array>
          </mxGeometry>
        </mxCell>
        <mxCell id="8xBzDFD03f1PaA1T0tNl-84" value="Authentication Manager" style="ellipse;shape=umlControl;whiteSpace=wrap;html=1;" vertex="1" parent="1">
          <mxGeometry x="120" y="1725" width="80" height="90" as="geometry" />
        </mxCell>
        <mxCell id="8xBzDFD03f1PaA1T0tNl-95" style="edgeStyle=orthogonalEdgeStyle;rounded=0;orthogonalLoop=1;jettySize=auto;html=1;" edge="1" parent="1" source="8xBzDFD03f1PaA1T0tNl-89" target="8xBzDFD03f1PaA1T0tNl-90">
          <mxGeometry relative="1" as="geometry" />
        </mxCell>
        <mxCell id="8xBzDFD03f1PaA1T0tNl-89" value="Satellite&lt;div&gt;&amp;nbsp;Image Request Interface&lt;/div&gt;" style="shape=umlBoundary;whiteSpace=wrap;html=1;" vertex="1" parent="1">
          <mxGeometry x="-60" y="1240" width="100" height="80" as="geometry" />
        </mxCell>
        <mxCell id="8xBzDFD03f1PaA1T0tNl-99" style="edgeStyle=orthogonalEdgeStyle;rounded=0;orthogonalLoop=1;jettySize=auto;html=1;" edge="1" parent="1" source="8xBzDFD03f1PaA1T0tNl-90" target="8xBzDFD03f1PaA1T0tNl-65">
          <mxGeometry relative="1" as="geometry" />
        </mxCell>
        <mxCell id="8xBzDFD03f1PaA1T0tNl-90" value="Satellite Image Request Controller" style="ellipse;shape=umlControl;whiteSpace=wrap;html=1;" vertex="1" parent="1">
          <mxGeometry x="270" y="1235" width="80" height="90" as="geometry" />
        </mxCell>
        <mxCell id="8xBzDFD03f1PaA1T0tNl-93" value="Service Request Failure Interface" style="shape=umlBoundary;whiteSpace=wrap;html=1;" vertex="1" parent="1">
          <mxGeometry x="-60" y="1050" width="100" height="80" as="geometry" />
        </mxCell>
        <mxCell id="8xBzDFD03f1PaA1T0tNl-101" style="edgeStyle=orthogonalEdgeStyle;rounded=0;orthogonalLoop=1;jettySize=auto;html=1;entryX=0.264;entryY=0.148;entryDx=0;entryDy=0;entryPerimeter=0;" edge="1" parent="1" source="8xBzDFD03f1PaA1T0tNl-7" target="8xBzDFD03f1PaA1T0tNl-65">
          <mxGeometry relative="1" as="geometry" />
        </mxCell>
        <mxCell id="8xBzDFD03f1PaA1T0tNl-104" style="edgeStyle=orthogonalEdgeStyle;rounded=0;orthogonalLoop=1;jettySize=auto;html=1;entryX=0.996;entryY=0.52;entryDx=0;entryDy=0;entryPerimeter=0;" edge="1" parent="1" source="8xBzDFD03f1PaA1T0tNl-65" target="8xBzDFD03f1PaA1T0tNl-74">
          <mxGeometry relative="1" as="geometry">
            <Array as="points">
              <mxPoint x="310" y="902" />
            </Array>
          </mxGeometry>
        </mxCell>
        <mxCell id="8xBzDFD03f1PaA1T0tNl-117" value="Label Collection and Aggregation Subsystem" style="rounded=1;whiteSpace=wrap;html=1;fillColor=light-dark(#dcdbdb, #ededed);" vertex="1" parent="1">
          <mxGeometry x="-70" y="260" width="120" height="60" as="geometry" />
        </mxCell>
        <mxCell id="8xBzDFD03f1PaA1T0tNl-118" value="Computer Vision Model Creation Subsystem" style="rounded=1;whiteSpace=wrap;html=1;fillColor=light-dark(#dcdbdb, #ededed);" vertex="1" parent="1">
          <mxGeometry x="740" y="260" width="120" height="60" as="geometry" />
        </mxCell>
        <mxCell id="8xBzDFD03f1PaA1T0tNl-119" value="Project Creation and Selection Subsystem" style="rounded=1;whiteSpace=wrap;html=1;fillColor=light-dark(#dcdbdb, #ededed);" vertex="1" parent="1">
          <mxGeometry x="-70" y="640" width="120" height="60" as="geometry" />
        </mxCell>
        <mxCell id="8xBzDFD03f1PaA1T0tNl-120" value="Client/ Labeller Management Susbsystem" style="rounded=1;whiteSpace=wrap;html=1;fillColor=light-dark(#dcdbdb, #ededed);" vertex="1" parent="1">
          <mxGeometry x="425" y="1380" width="120" height="60" as="geometry" />
        </mxCell>
        <mxCell id="8xBzDFD03f1PaA1T0tNl-121" value="Label Collection and Aggregation Subsystem" style="rounded=1;whiteSpace=wrap;html=1;fillColor=light-dark(#dcdbdb, #ededed);" vertex="1" parent="1">
          <mxGeometry x="1090" y="250" width="120" height="60" as="geometry" />
        </mxCell>
        <mxCell id="8xBzDFD03f1PaA1T0tNl-124" value="&lt;h1 style=&quot;margin-top: 0px;&quot;&gt;&lt;font style=&quot;font-size: 16px;&quot;&gt;Image Service&lt;/font&gt;&lt;/h1&gt;&lt;p&gt;Responsible for all operations related to serving a new image to the user. This includes, selection of sub&lt;span style=&quot;color: rgba(0, 0, 0, 0); font-family: monospace; font-size: 0px; text-wrap-mode: nowrap; background-color: transparent;&quot;&gt;%3CmxGraphModel%3E%3Croot%3E%3CmxCell%20id%3D%220%22%2F%3E%3CmxCell%20id%3D%221%22%20parent%3D%220%22%2F%3E%3CmxCell%20id%3D%222%22%20value%3D%22Object%20Database%22%20style%3D%22ellipse%3Bshape%3DumlEntity%3BwhiteSpace%3Dwrap%3Bhtml%3D1%3B%22%20vertex%3D%221%22%20parent%3D%221%22%3E%3CmxGeometry%20x%3D%22590%22%20y%3D%22260%22%20width%3D%2280%22%20height%3D%2280%22%20as%3D%22geometry%22%2F%3E%3C%2FmxCell%3E%3C%2Froot%3E%3C%2FmxGraphModel%3E&lt;/span&gt;&lt;span style=&quot;background-color: transparent; color: light-dark(rgb(0, 0, 0), rgb(255, 255, 255));&quot;&gt;-image, matching with labeller, and sending image to user.&lt;/span&gt;&lt;/p&gt;" style="text;html=1;whiteSpace=wrap;overflow=hidden;rounded=0;strokeColor=default;" vertex="1" parent="1">
          <mxGeometry x="1090" y="410" width="470" height="90" as="geometry" />
        </mxCell>
        <mxCell id="8xBzDFD03f1PaA1T0tNl-127" style="edgeStyle=orthogonalEdgeStyle;rounded=0;orthogonalLoop=1;jettySize=auto;html=1;" edge="1" parent="1" source="8xBzDFD03f1PaA1T0tNl-125" target="8xBzDFD03f1PaA1T0tNl-11">
          <mxGeometry relative="1" as="geometry">
            <Array as="points">
              <mxPoint x="400" y="300" />
            </Array>
          </mxGeometry>
        </mxCell>
        <mxCell id="8xBzDFD03f1PaA1T0tNl-125" value="Labeller Database" style="ellipse;shape=umlEntity;whiteSpace=wrap;html=1;" vertex="1" parent="1">
          <mxGeometry x="360" y="320" width="80" height="80" as="geometry" />
        </mxCell>
        <mxCell id="8xBzDFD03f1PaA1T0tNl-128" value="&lt;h1 style=&quot;margin-top: 0px;&quot;&gt;&lt;span style=&quot;font-size: 16px;&quot;&gt;Labeller Database&lt;/span&gt;&lt;/h1&gt;&lt;p&gt;Stores Information about labellers related to their prior labels (eg. accuracy, expertise)&lt;/p&gt;" style="text;html=1;whiteSpace=wrap;overflow=hidden;rounded=0;strokeColor=default;" vertex="1" parent="1">
          <mxGeometry x="1090" y="500" width="470" height="80" as="geometry" />
        </mxCell>
        <mxCell id="8xBzDFD03f1PaA1T0tNl-129" value="&lt;h1 style=&quot;margin-top: 0px;&quot;&gt;&lt;font style=&quot;font-size: 16px;&quot;&gt;Labeling Interface&lt;/font&gt;&lt;/h1&gt;&lt;p&gt;Shows Image to user and collects annotations.&lt;/p&gt;" style="text;html=1;whiteSpace=wrap;overflow=hidden;rounded=0;strokeColor=default;" vertex="1" parent="1">
          <mxGeometry x="1090" y="330" width="470" height="80" as="geometry" />
        </mxCell>
        <mxCell id="8xBzDFD03f1PaA1T0tNl-130" value="&lt;h1 style=&quot;margin-top: 0px;&quot;&gt;&lt;span style=&quot;font-size: 16px;&quot;&gt;Label Processing Engine&lt;/span&gt;&lt;/h1&gt;&lt;p&gt;Processes incoming labels and prepares them to be saved in the label database&lt;/p&gt;" style="text;html=1;whiteSpace=wrap;overflow=hidden;rounded=0;strokeColor=default;" vertex="1" parent="1">
          <mxGeometry x="1090" y="580" width="470" height="80" as="geometry" />
        </mxCell>
        <mxCell id="8xBzDFD03f1PaA1T0tNl-132" value="&lt;h1 style=&quot;margin-top: 0px;&quot;&gt;&lt;span style=&quot;font-size: 16px;&quot;&gt;Image Pre-Processing Service&lt;/span&gt;&lt;/h1&gt;&lt;p&gt;Performs pre-processing on images to attempt to improve efficiency and accuracy when selecting Images to serve or aggregating labels. (eg. image segmentation, computer vision)&lt;/p&gt;" style="text;html=1;whiteSpace=wrap;overflow=hidden;rounded=0;strokeColor=default;" vertex="1" parent="1">
          <mxGeometry x="1090" y="660" width="470" height="100" as="geometry" />
        </mxCell>
        <mxCell id="8xBzDFD03f1PaA1T0tNl-133" value="&lt;h1 style=&quot;margin-top: 0px;&quot;&gt;&lt;span style=&quot;font-size: 16px;&quot;&gt;Object database&lt;/span&gt;&lt;/h1&gt;&lt;p&gt;Stores objects extracted by users, including confidence levels.&lt;/p&gt;" style="text;html=1;whiteSpace=wrap;overflow=hidden;rounded=0;strokeColor=default;" vertex="1" parent="1">
          <mxGeometry x="1090" y="760" width="470" height="80" as="geometry" />
        </mxCell>
        <mxCell id="8xBzDFD03f1PaA1T0tNl-134" value="&lt;h1 style=&quot;margin-top: 0px;&quot;&gt;&lt;span style=&quot;font-size: 16px;&quot;&gt;Object Extraction Engine&lt;/span&gt;&lt;/h1&gt;&lt;p&gt;Combines prior information from preprocessing engine with labels collected to extract image segments of a certain object class&lt;/p&gt;" style="text;html=1;whiteSpace=wrap;overflow=hidden;rounded=0;strokeColor=default;" vertex="1" parent="1">
          <mxGeometry x="1090" y="840" width="470" height="90" as="geometry" />
        </mxCell>
        <mxCell id="8xBzDFD03f1PaA1T0tNl-135" value="&lt;h1 style=&quot;margin-top: 0px;&quot;&gt;&lt;span style=&quot;font-size: 16px;&quot;&gt;Label database&lt;/span&gt;&lt;/h1&gt;&lt;p&gt;Stores labels made by users&lt;/p&gt;" style="text;html=1;whiteSpace=wrap;overflow=hidden;rounded=0;strokeColor=default;" vertex="1" parent="1">
          <mxGeometry x="1090" y="930" width="470" height="90" as="geometry" />
        </mxCell>
        <mxCell id="8xBzDFD03f1PaA1T0tNl-136" value="" style="rounded=0;whiteSpace=wrap;html=1;align=left;" vertex="1" parent="1">
          <mxGeometry x="1090" y="1030" width="470" height="410" as="geometry" />
        </mxCell>
        <mxCell id="8xBzDFD03f1PaA1T0tNl-138" value="&lt;h1 style=&quot;margin-top: 0px;&quot;&gt;&lt;font style=&quot;font-size: 16px;&quot;&gt;Model Evaluation Service&lt;/font&gt;&lt;/h1&gt;&lt;p&gt;Evaluates Model Performance on a dataset.&lt;/p&gt;" style="text;html=1;whiteSpace=wrap;overflow=hidden;rounded=0;strokeColor=default;" vertex="1" parent="1">
          <mxGeometry x="1090" y="1110" width="470" height="80" as="geometry" />
        </mxCell>
        <mxCell id="8xBzDFD03f1PaA1T0tNl-139" value="Computer Vision Model Creation Subsystem" style="rounded=1;whiteSpace=wrap;html=1;fillColor=light-dark(#dcdbdb, #ededed);" vertex="1" parent="1">
          <mxGeometry x="1090" y="1030" width="120" height="60" as="geometry" />
        </mxCell>
        <mxCell id="8xBzDFD03f1PaA1T0tNl-140" value="&lt;h1 style=&quot;margin-top: 0px;&quot;&gt;&lt;font style=&quot;font-size: 16px;&quot;&gt;Model Training Service&lt;/font&gt;&lt;/h1&gt;&lt;p&gt;Trains a computer vision model on a set of extracted objects&lt;/p&gt;" style="text;html=1;whiteSpace=wrap;overflow=hidden;rounded=0;strokeColor=default;" vertex="1" parent="1">
          <mxGeometry x="1090" y="1190" width="470" height="80" as="geometry" />
        </mxCell>
        <mxCell id="8xBzDFD03f1PaA1T0tNl-141" value="&lt;h1 style=&quot;margin-top: 0px;&quot;&gt;&lt;font style=&quot;font-size: 16px;&quot;&gt;Model Manager&lt;/font&gt;&lt;/h1&gt;&lt;p&gt;Coordinates model training and evaluation. When performance is satisfactory, triggers serving of model to client in summary report&lt;/p&gt;" style="text;html=1;whiteSpace=wrap;overflow=hidden;rounded=0;strokeColor=default;" vertex="1" parent="1">
          <mxGeometry x="1090" y="1270" width="470" height="90" as="geometry" />
        </mxCell>
        <mxCell id="8xBzDFD03f1PaA1T0tNl-142" value="&lt;h1 style=&quot;margin-top: 0px;&quot;&gt;&lt;span style=&quot;font-size: 16px;&quot;&gt;ML Model Database&lt;/span&gt;&lt;/h1&gt;&lt;p&gt;Stores models&amp;nbsp;&lt;/p&gt;" style="text;html=1;whiteSpace=wrap;overflow=hidden;rounded=0;strokeColor=default;" vertex="1" parent="1">
          <mxGeometry x="1090" y="1360" width="470" height="80" as="geometry" />
        </mxCell>
      </root>
    </mxGraphModel>
  </diagram>
</mxfile>
